<?xml version="1.0" encoding="utf-8"?>
<svg viewBox="437.10003662109375 86.30000305175781 204.20001220703125 204.19996643066406" width="204.20001220703125" height="204.19996643066406" xmlns="http://www.w3.org/2000/svg"><g transform="matrix(1, 0, 0, 1, 1.1368683772161603e-13, 0)"><path class="st0" d="M455.4,206.7h65.5v65.5c0,10.1,8.2,18.3,18.3,18.3c10.1,0,18.3-8.2,18.3-18.3v-65.5H623&#10;&#9;c10.1,0,18.3-8.2,18.3-18.3c0-10.1-8.2-18.3-18.3-18.3h-65.5v-65.5c0-10.1-8.2-18.3-18.3-18.3c-10.1,0-18.3,8.2-18.3,18.3v65.5&#10;&#9;h-65.5c-10.1,0-18.3,8.2-18.3,18.3C437.1,198.5,445.3,206.7,455.4,206.7L455.4,206.7z M455.4,206.7" style="fill: rgb(204, 204, 204); opacity: 1;" transform="matrix(1, 0, 0, 1, 1.1368683772161603e-13, 0)"/></g></svg>